<svg width="76" height="76" viewBox="0 0 76 76" fill="none" xmlns="http://www.w3.org/2000/svg">
<g opacity="0.1" clip-path="url(#clip0_4_1244)">
<path d="M69.2505 9.75H6.75049C5.08382 9.91667 3.62549 10.5833 2.37549 11.75C1.12549 12.9167 0.500488 14.4167 0.500488 16.25V60C0.500488 61.6667 1.12549 63.0833 2.37549 64.25C3.62549 65.4167 5.08382 66 6.75049 66H69.2505C70.9172 66 72.3755 65.4167 73.6255 64.25C74.8755 63.0833 75.5005 61.5833 75.5005 59.75V16.25C75.5005 14.4167 74.8755 12.9167 73.6255 11.75C72.3755 10.5833 70.9172 10 69.2505 10V9.75ZM6.75049 13H69.2505L70.0005 13.25L40.2505 40.25C39.5838 40.75 38.8338 41 38.0005 41C37.1672 41 36.4172 40.75 35.7505 40.25L6.00049 13.25L6.75049 13ZM3.50049 59.75V16.25L3.75049 15.25L28.5005 38C22.6672 43 14.4172 50.5833 3.75049 60.75L3.50049 59.75ZM69.2505 63H6.75049L6.00049 62.75C16.8338 52.5833 25.1672 45 31.0005 40L33.7505 42.5C34.9172 43.6667 36.3338 44.25 38.0005 44.25C39.6672 44.25 41.0838 43.6667 42.2505 42.5L45.0005 40C50.8338 45 59.1672 52.5833 70.0005 62.75L69.2505 63ZM72.5005 59.75C72.5005 59.9167 72.4172 60.1667 72.2505 60.5V60.75C61.5838 50.5833 53.3338 43 47.5005 38L72.2505 15.25L72.5005 16V59.75Z" fill="#7B96B7"/>
</g>
<defs>
<clipPath id="clip0_4_1244">
<rect width="75" height="75" fill="white" transform="matrix(1 0 0 -1 0.500488 75.5)"/>
</clipPath>
</defs>
</svg>
